<?xml version="1.0" standalone="no"?>
<svg width="1056" height="816" xmlns="http://www.w3.org/2000/svg" id="svgvm2"><g transform="translate(5,5)" style="font-family: sans-serif;"><g><rect width="1046" height="96" style="stroke: black; stroke-width: 1; fill: white;"/><g transform="translate(0,0)"><rect width="523" height="96" style="stroke-width: 1; stroke: black; fill: white;"/><text transform="translate(6, 24)" dx="0" dy="0" font-size="18pt" fill="black" style="font-weight: bold;"><tspan x="0" dy="0em">layer</tspan></text></g><g transform="translate(523, 0)"><rect width="523" height="96" style="stroke-width: 1; stroke: black; fill: white;"/><text transform="translate(6, 18)" dx="0" dy="0" font-size="12pt" fill="black" style="font-weight: bold;">filters</text><g transform="translate(6,47.5)"><text font-size="12pt">stages: act</text><text font-size="12pt" dy="1.1em">platforms: linux</text></g></g><line x1="0" x2="1046" y1="96" y2="96" style="stroke: black; stroke-width: 3;"/></g><g transform="translate(0,97)"><g transform="translate(0, 0)"><g transform="translate(0,0)"><rect width="95.0909090909091" height="61.65217391304348" style="stroke: rgb(0, 0, 0); fill: white;"/><text font-size="6pt" transform="translate(3, 18.663043478260867)" style="fill: black; font-weight: bold;" dx="0" dy="0"><tspan x="0" dy="0em">Initial Access</tspan></text><text font-size="6pt" transform="translate(3, 48.98913043478261)" style="fill: black;" dx="0" dy="0"><tspan x="0" dy="0em">9 items</tspan></text></g><g transform="translate(0,61.65217391304348)"><g transform="translate(0,0)"><rect width="95.0909090909091" height="30.82608695652174" style="stroke: rgb(0, 0, 0); fill: white;"/><text style="fill: black;" font-size="5pt" transform="translate(3, 2)" dx="0" dy="0"><tspan x="0" dy="0" y="15.91304347826087">Drive-by Compromise</tspan></text></g><g transform="translate(0,30.82608695652174)"><rect width="95.0909090909091" height="30.82608695652174" style="stroke: rgb(0, 0, 0); fill: white;"/><text style="fill: black;" font-size="5pt" transform="translate(3, 2)" dx="0" dy="0"><tspan x="0" dy="0" y="8.456521739130434">Exploit Public-Facing</tspan><tspan x="0" dy="0" y="23.369565217391305">Application</tspan></text></g><g transform="translate(0,61.65217391304348)"><rect width="95.0909090909091" height="30.82608695652174" style="stroke: rgb(0, 0, 0); fill: rgb(158, 202, 225);"/><text style="fill: black;" font-size="5pt" transform="translate(3, 2)" dx="0" dy="0"><tspan x="0" dy="0" y="15.91304347826087">Hardware Additions</tspan></text></g><g transform="translate(0,92.47826086956522)"><rect width="95.0909090909091" height="30.82608695652174" style="stroke: rgb(0, 0, 0); fill: white;"/><text style="fill: black;" font-size="5pt" transform="translate(3, 2)" dx="0" dy="0"><tspan x="0" dy="0" y="15.91304347826087">Spearphishing Attachment</tspan></text></g><g transform="translate(0,123.30434782608695)"><rect width="95.0909090909091" height="30.82608695652174" style="stroke: rgb(0, 0, 0); fill: white;"/><text style="fill: black;" font-size="5pt" transform="translate(3, 2)" dx="0" dy="0"><tspan x="0" dy="0" y="15.91304347826087">Spearphishing Link</tspan></text></g><g transform="translate(0,154.1304347826087)"><rect width="95.0909090909091" height="30.82608695652174" style="stroke: rgb(0, 0, 0); fill: white;"/><text style="fill: black;" font-size="5pt" transform="translate(3, 2)" dx="0" dy="0"><tspan x="0" dy="0" y="15.91304347826087">Spearphishing via Service</tspan></text></g><g transform="translate(0,184.95652173913044)"><rect width="95.0909090909091" height="30.82608695652174" style="stroke: rgb(0, 0, 0); fill: white;"/><text style="fill: black;" font-size="5pt" transform="translate(3, 2)" dx="0" dy="0"><tspan x="0" dy="0" y="15.91304347826087">Supply Chain Compromise</tspan></text></g><g transform="translate(0,215.78260869565216)"><rect width="95.0909090909091" height="30.82608695652174" style="stroke: rgb(0, 0, 0); fill: white;"/><text style="fill: black;" font-size="5pt" transform="translate(3, 2)" dx="0" dy="0"><tspan x="0" dy="0" y="15.91304347826087">Trusted Relationship</tspan></text></g><g transform="translate(0,246.6086956521739)"><rect width="95.0909090909091" height="30.82608695652174" style="stroke: rgb(0, 0, 0); fill: rgb(158, 202, 225);"/><text style="fill: black;" font-size="5pt" transform="translate(3, 2)" dx="0" dy="0"><tspan x="0" dy="0" y="15.91304347826087">Valid Accounts</tspan></text></g></g></g><g transform="translate(95.0909090909091, 0)"><g transform="translate(0,0)"><rect width="95.0909090909091" height="61.65217391304348" style="stroke: rgb(0, 0, 0); fill: white;"/><text font-size="6pt" transform="translate(3, 18.663043478260867)" style="fill: black; font-weight: bold;" dx="0" dy="0"><tspan x="0" dy="0em">Execution</tspan></text><text font-size="6pt" transform="translate(3, 48.98913043478261)" style="fill: black;" dx="0" dy="0"><tspan x="0" dy="0em">10 items</tspan></text></g><g transform="translate(0,61.65217391304348)"><g transform="translate(0,0)"><rect width="95.0909090909091" height="30.82608695652174" style="stroke: rgb(0, 0, 0); fill: white;"/><text style="fill: black;" font-size="5pt" transform="translate(3, 2)" dx="0" dy="0"><tspan x="0" dy="0" y="15.91304347826087">Command-Line Interface</tspan></text></g><g transform="translate(0,30.82608695652174)"><rect width="95.0909090909091" height="30.82608695652174" style="stroke: rgb(0, 0, 0); fill: white;"/><text style="fill: black;" font-size="5pt" transform="translate(3, 2)" dx="0" dy="0"><tspan x="0" dy="0" y="8.456521739130434">Exploitation for Client</tspan><tspan x="0" dy="0" y="23.369565217391305">Execution</tspan></text></g><g transform="translate(0,61.65217391304348)"><rect width="95.0909090909091" height="30.82608695652174" style="stroke: rgb(0, 0, 0); fill: white;"/><text style="fill: black;" font-size="5pt" transform="translate(3, 2)" dx="0" dy="0"><tspan x="0" dy="0" y="15.91304347826087">Graphical User Interface</tspan></text></g><g transform="translate(0,92.47826086956522)"><rect width="95.0909090909091" height="30.82608695652174" style="stroke: rgb(0, 0, 0); fill: rgb(158, 202, 225);"/><text style="fill: black;" font-size="5pt" transform="translate(3, 2)" dx="0" dy="0"><tspan x="0" dy="0" y="15.91304347826087">Local Job Scheduling</tspan></text></g><g transform="translate(0,123.30434782608695)"><rect width="95.0909090909091" height="30.82608695652174" style="stroke: rgb(0, 0, 0); fill: white;"/><text style="fill: black;" font-size="5pt" transform="translate(3, 2)" dx="0" dy="0"><tspan x="0" dy="0" y="15.91304347826087">Scripting</tspan></text></g><g transform="translate(0,154.1304347826087)"><rect width="95.0909090909091" height="30.82608695652174" style="stroke: rgb(0, 0, 0); fill: white;"/><text style="fill: black;" font-size="5pt" transform="translate(3, 2)" dx="0" dy="0"><tspan x="0" dy="0" y="15.91304347826087">Source</tspan></text></g><g transform="translate(0,184.95652173913044)"><rect width="95.0909090909091" height="30.82608695652174" style="stroke: rgb(0, 0, 0); fill: white;"/><text style="fill: black;" font-size="5pt" transform="translate(3, 2)" dx="0" dy="0"><tspan x="0" dy="0" y="15.91304347826087">Space after Filename</tspan></text></g><g transform="translate(0,215.78260869565216)"><rect width="95.0909090909091" height="30.82608695652174" style="stroke: rgb(0, 0, 0); fill: white;"/><text style="fill: black;" font-size="5pt" transform="translate(3, 2)" dx="0" dy="0"><tspan x="0" dy="0" y="15.91304347826087">Third-party Software</tspan></text></g><g transform="translate(0,246.6086956521739)"><rect width="95.0909090909091" height="30.82608695652174" style="stroke: rgb(0, 0, 0); fill: white;"/><text style="fill: black;" font-size="5pt" transform="translate(3, 2)" dx="0" dy="0"><tspan x="0" dy="0" y="15.91304347826087">Trap</tspan></text></g><g transform="translate(0,277.4347826086956)"><rect width="95.0909090909091" height="30.82608695652174" style="stroke: rgb(0, 0, 0); fill: white;"/><text style="fill: black;" font-size="5pt" transform="translate(3, 2)" dx="0" dy="0"><tspan x="0" dy="0" y="15.91304347826087">User Execution</tspan></text></g></g></g><g transform="translate(190.1818181818182, 0)"><g transform="translate(0,0)"><rect width="95.0909090909091" height="61.65217391304348" style="stroke: rgb(0, 0, 0); fill: white;"/><text font-size="6pt" transform="translate(3, 18.663043478260867)" style="fill: black; font-weight: bold;" dx="0" dy="0"><tspan x="0" dy="0em">Persistence</tspan></text><text font-size="6pt" transform="translate(3, 48.98913043478261)" style="fill: black;" dx="0" dy="0"><tspan x="0" dy="0em">12 items</tspan></text></g><g transform="translate(0,61.65217391304348)"><g transform="translate(0,0)"><rect width="95.0909090909091" height="30.82608695652174" style="stroke: rgb(0, 0, 0); fill: rgb(158, 202, 225);"/><text style="fill: black;" font-size="5pt" transform="translate(3, 2)" dx="0" dy="0"><tspan x="0" dy="0" y="15.91304347826087">.bash_profile and .bashrc</tspan></text></g><g transform="translate(0,30.82608695652174)"><rect width="95.0909090909091" height="30.82608695652174" style="stroke: rgb(0, 0, 0); fill: white;"/><text style="fill: black;" font-size="5pt" transform="translate(3, 2)" dx="0" dy="0"><tspan x="0" dy="0" y="15.91304347826087">Bootkit</tspan></text></g><g transform="translate(0,61.65217391304348)"><rect width="95.0909090909091" height="30.82608695652174" style="stroke: rgb(0, 0, 0); fill: white;"/><text style="fill: black;" font-size="5pt" transform="translate(3, 2)" dx="0" dy="0"><tspan x="0" dy="0" y="15.91304347826087">Browser Extensions</tspan></text></g><g transform="translate(0,92.47826086956522)"><rect width="95.0909090909091" height="30.82608695652174" style="stroke: rgb(0, 0, 0); fill: white;"/><text style="fill: black;" font-size="5pt" transform="translate(3, 2)" dx="0" dy="0"><tspan x="0" dy="0" y="15.91304347826087">Create Account</tspan></text></g><g transform="translate(0,123.30434782608695)"><rect width="95.0909090909091" height="30.82608695652174" style="stroke: rgb(0, 0, 0); fill: white;"/><text style="fill: black;" font-size="5pt" transform="translate(3, 2)" dx="0" dy="0"><tspan x="0" dy="0" y="15.91304347826087">Hidden Files and Directories</tspan></text></g><g transform="translate(0,154.1304347826087)"><rect width="95.0909090909091" height="30.82608695652174" style="stroke: rgb(0, 0, 0); fill: rgb(158, 202, 225);"/><text style="fill: black;" font-size="5pt" transform="translate(3, 2)" dx="0" dy="0"><tspan x="0" dy="0" y="8.456521739130434">Kernel Modules and</tspan><tspan x="0" dy="0" y="23.369565217391305">Extensions</tspan></text></g><g transform="translate(0,184.95652173913044)"><rect width="95.0909090909091" height="30.82608695652174" style="stroke: rgb(0, 0, 0); fill: rgb(158, 202, 225);"/><text style="fill: black;" font-size="5pt" transform="translate(3, 2)" dx="0" dy="0"><tspan x="0" dy="0" y="15.91304347826087">Local Job Scheduling</tspan></text></g><g transform="translate(0,215.78260869565216)"><rect width="95.0909090909091" height="30.82608695652174" style="stroke: rgb(0, 0, 0); fill: white;"/><text style="fill: black;" font-size="5pt" transform="translate(3, 2)" dx="0" dy="0"><tspan x="0" dy="0" y="15.91304347826087">Port Knocking</tspan></text></g><g transform="translate(0,246.6086956521739)"><rect width="95.0909090909091" height="30.82608695652174" style="stroke: rgb(0, 0, 0); fill: rgb(158, 202, 225);"/><text style="fill: black;" font-size="5pt" transform="translate(3, 2)" dx="0" dy="0"><tspan x="0" dy="0" y="15.91304347826087">Redundant Access</tspan></text></g><g transform="translate(0,277.4347826086956)"><rect width="95.0909090909091" height="30.82608695652174" style="stroke: rgb(0, 0, 0); fill: white;"/><text style="fill: black;" font-size="5pt" transform="translate(3, 2)" dx="0" dy="0"><tspan x="0" dy="0" y="15.91304347826087">Trap</tspan></text></g><g transform="translate(0,308.2608695652174)"><rect width="95.0909090909091" height="30.82608695652174" style="stroke: rgb(0, 0, 0); fill: rgb(158, 202, 225);"/><text style="fill: black;" font-size="5pt" transform="translate(3, 2)" dx="0" dy="0"><tspan x="0" dy="0" y="15.91304347826087">Valid Accounts</tspan></text></g><g transform="translate(0,339.0869565217391)"><rect width="95.0909090909091" height="30.82608695652174" style="stroke: rgb(0, 0, 0); fill: white;"/><text style="fill: black;" font-size="5pt" transform="translate(3, 2)" dx="0" dy="0"><tspan x="0" dy="0" y="15.91304347826087">Web Shell</tspan></text></g></g></g><g transform="translate(285.27272727272725, 0)"><g transform="translate(0,0)"><rect width="95.0909090909091" height="61.65217391304348" style="stroke: rgb(0, 0, 0); fill: white;"/><text font-size="6pt" transform="translate(3, 18.663043478260867)" style="fill: black; font-weight: bold;" dx="0" dy="0"><tspan x="0" dy="0em">Privilege Escalation</tspan></text><text font-size="6pt" transform="translate(3, 48.98913043478261)" style="fill: black;" dx="0" dy="0"><tspan x="0" dy="0em">7 items</tspan></text></g><g transform="translate(0,61.65217391304348)"><g transform="translate(0,0)"><rect width="95.0909090909091" height="30.82608695652174" style="stroke: rgb(0, 0, 0); fill: rgb(158, 202, 225);"/><text style="fill: black;" font-size="5pt" transform="translate(3, 2)" dx="0" dy="0"><tspan x="0" dy="0" y="8.456521739130434">Exploitation for Privilege</tspan><tspan x="0" dy="0" y="23.369565217391305">Escalation</tspan></text></g><g transform="translate(0,30.82608695652174)"><rect width="95.0909090909091" height="30.82608695652174" style="stroke: rgb(0, 0, 0); fill: rgb(158, 202, 225);"/><text style="fill: black;" font-size="5pt" transform="translate(3, 2)" dx="0" dy="0"><tspan x="0" dy="0" y="15.91304347826087">Process Injection</tspan></text></g><g transform="translate(0,61.65217391304348)"><rect width="95.0909090909091" height="30.82608695652174" style="stroke: rgb(0, 0, 0); fill: rgb(158, 202, 225);"/><text style="fill: black;" font-size="5pt" transform="translate(3, 2)" dx="0" dy="0"><tspan x="0" dy="0" y="15.91304347826087">Setuid and Setgid</tspan></text></g><g transform="translate(0,92.47826086956522)"><rect width="95.0909090909091" height="30.82608695652174" style="stroke: rgb(0, 0, 0); fill: rgb(158, 202, 225);"/><text style="fill: black;" font-size="5pt" transform="translate(3, 2)" dx="0" dy="0"><tspan x="0" dy="0" y="15.91304347826087">Sudo</tspan></text></g><g transform="translate(0,123.30434782608695)"><rect width="95.0909090909091" height="30.82608695652174" style="stroke: rgb(0, 0, 0); fill: white;"/><text style="fill: black;" font-size="5pt" transform="translate(3, 2)" dx="0" dy="0"><tspan x="0" dy="0" y="15.91304347826087">Sudo Caching</tspan></text></g><g transform="translate(0,154.1304347826087)"><rect width="95.0909090909091" height="30.82608695652174" style="stroke: rgb(0, 0, 0); fill: rgb(158, 202, 225);"/><text style="fill: black;" font-size="5pt" transform="translate(3, 2)" dx="0" dy="0"><tspan x="0" dy="0" y="15.91304347826087">Valid Accounts</tspan></text></g><g transform="translate(0,184.95652173913044)"><rect width="95.0909090909091" height="30.82608695652174" style="stroke: rgb(0, 0, 0); fill: white;"/><text style="fill: black;" font-size="5pt" transform="translate(3, 2)" dx="0" dy="0"><tspan x="0" dy="0" y="15.91304347826087">Web Shell</tspan></text></g></g></g><g transform="translate(380.3636363636364, 0)"><g transform="translate(0,0)"><rect width="95.0909090909091" height="61.65217391304348" style="stroke: rgb(0, 0, 0); fill: white;"/><text font-size="6pt" transform="translate(3, 18.663043478260867)" style="fill: black; font-weight: bold;" dx="0" dy="0"><tspan x="0" dy="0em">Defense Evasion</tspan></text><text font-size="6pt" transform="translate(3, 48.98913043478261)" style="fill: black;" dx="0" dy="0"><tspan x="0" dy="0em">21 items</tspan></text></g><g transform="translate(0,61.65217391304348)"><g transform="translate(0,0)"><rect width="95.0909090909091" height="30.82608695652174" style="stroke: rgb(0, 0, 0); fill: white;"/><text style="fill: black;" font-size="5pt" transform="translate(3, 2)" dx="0" dy="0"><tspan x="0" dy="0" y="15.91304347826087">Binary Padding</tspan></text></g><g transform="translate(0,30.82608695652174)"><rect width="95.0909090909091" height="30.82608695652174" style="stroke: rgb(0, 0, 0); fill: white;"/><text style="fill: black;" font-size="5pt" transform="translate(3, 2)" dx="0" dy="0"><tspan x="0" dy="0" y="15.91304347826087">Clear Command History</tspan></text></g><g transform="translate(0,61.65217391304348)"><rect width="95.0909090909091" height="30.82608695652174" style="stroke: rgb(0, 0, 0); fill: white;"/><text style="fill: black;" font-size="5pt" transform="translate(3, 2)" dx="0" dy="0"><tspan x="0" dy="0" y="15.91304347826087">Disabling Security Tools</tspan></text></g><g transform="translate(0,92.47826086956522)"><rect width="95.0909090909091" height="30.82608695652174" style="stroke: rgb(0, 0, 0); fill: white;"/><text style="fill: black;" font-size="5pt" transform="translate(3, 2)" dx="0" dy="0"><tspan x="0" dy="0" y="8.456521739130434">Exploitation for Defense</tspan><tspan x="0" dy="0" y="23.369565217391305">Evasion</tspan></text></g><g transform="translate(0,123.30434782608695)"><rect width="95.0909090909091" height="30.82608695652174" style="stroke: rgb(0, 0, 0); fill: rgb(158, 202, 225);"/><text style="fill: black;" font-size="5pt" transform="translate(3, 2)" dx="0" dy="0"><tspan x="0" dy="0" y="15.91304347826087">File Deletion</tspan></text></g><g transform="translate(0,154.1304347826087)"><rect width="95.0909090909091" height="30.82608695652174" style="stroke: rgb(0, 0, 0); fill: white;"/><text style="fill: black;" font-size="5pt" transform="translate(3, 2)" dx="0" dy="0"><tspan x="0" dy="0" y="15.91304347826087">Hidden Files and Directories</tspan></text></g><g transform="translate(0,184.95652173913044)"><rect width="95.0909090909091" height="30.82608695652174" style="stroke: rgb(0, 0, 0); fill: white;"/><text style="fill: black;" font-size="5pt" transform="translate(3, 2)" dx="0" dy="0"><tspan x="0" dy="0" y="15.91304347826087">HISTCONTROL</tspan></text></g><g transform="translate(0,215.78260869565216)"><rect width="95.0909090909091" height="30.82608695652174" style="stroke: rgb(0, 0, 0); fill: rgb(158, 202, 225);"/><text style="fill: black;" font-size="5pt" transform="translate(3, 2)" dx="0" dy="0"><tspan x="0" dy="0" y="15.91304347826087">Indicator Removal from Tools</tspan></text></g><g transform="translate(0,246.6086956521739)"><rect width="95.0909090909091" height="30.82608695652174" style="stroke: rgb(0, 0, 0); fill: white;"/><text style="fill: black;" font-size="5pt" transform="translate(3, 2)" dx="0" dy="0"><tspan x="0" dy="0" y="15.91304347826087">Indicator Removal on Host</tspan></text></g><g transform="translate(0,277.4347826086956)"><rect width="95.0909090909091" height="30.82608695652174" style="stroke: rgb(0, 0, 0); fill: white;"/><text style="fill: black;" font-size="5pt" transform="translate(3, 2)" dx="0" dy="0"><tspan x="0" dy="0" y="15.91304347826087">Install Root Certificate</tspan></text></g><g transform="translate(0,308.2608695652174)"><rect width="95.0909090909091" height="30.82608695652174" style="stroke: rgb(0, 0, 0); fill: white;"/><text style="fill: black;" font-size="5pt" transform="translate(3, 2)" dx="0" dy="0"><tspan x="0" dy="0" y="15.91304347826087">Masquerading</tspan></text></g><g transform="translate(0,339.0869565217391)"><rect width="95.0909090909091" height="30.82608695652174" style="stroke: rgb(0, 0, 0); fill: white;"/><text style="fill: black;" font-size="5pt" transform="translate(3, 2)" dx="0" dy="0"><tspan x="0" dy="0" y="8.456521739130434">Obfuscated Files or</tspan><tspan x="0" dy="0" y="23.369565217391305">Information</tspan></text></g><g transform="translate(0,369.9130434782609)"><rect width="95.0909090909091" height="30.82608695652174" style="stroke: rgb(0, 0, 0); fill: white;"/><text style="fill: black;" font-size="5pt" transform="translate(3, 2)" dx="0" dy="0"><tspan x="0" dy="0" y="15.91304347826087">Port Knocking</tspan></text></g><g transform="translate(0,400.7391304347826)"><rect width="95.0909090909091" height="30.82608695652174" style="stroke: rgb(0, 0, 0); fill: rgb(158, 202, 225);"/><text style="fill: black;" font-size="5pt" transform="translate(3, 2)" dx="0" dy="0"><tspan x="0" dy="0" y="15.91304347826087">Process Injection</tspan></text></g><g transform="translate(0,431.5652173913043)"><rect width="95.0909090909091" height="30.82608695652174" style="stroke: rgb(0, 0, 0); fill: rgb(158, 202, 225);"/><text style="fill: black;" font-size="5pt" transform="translate(3, 2)" dx="0" dy="0"><tspan x="0" dy="0" y="15.91304347826087">Redundant Access</tspan></text></g><g transform="translate(0,462.39130434782606)"><rect width="95.0909090909091" height="30.82608695652174" style="stroke: rgb(0, 0, 0); fill: rgb(158, 202, 225);"/><text style="fill: black;" font-size="5pt" transform="translate(3, 2)" dx="0" dy="0"><tspan x="0" dy="0" y="15.91304347826087">Rootkit</tspan></text></g><g transform="translate(0,493.2173913043478)"><rect width="95.0909090909091" height="30.82608695652174" style="stroke: rgb(0, 0, 0); fill: white;"/><text style="fill: black;" font-size="5pt" transform="translate(3, 2)" dx="0" dy="0"><tspan x="0" dy="0" y="15.91304347826087">Scripting</tspan></text></g><g transform="translate(0,524.0434782608695)"><rect width="95.0909090909091" height="30.82608695652174" style="stroke: rgb(0, 0, 0); fill: white;"/><text style="fill: black;" font-size="5pt" transform="translate(3, 2)" dx="0" dy="0"><tspan x="0" dy="0" y="15.91304347826087">Space after Filename</tspan></text></g><g transform="translate(0,554.8695652173913)"><rect width="95.0909090909091" height="30.82608695652174" style="stroke: rgb(0, 0, 0); fill: rgb(158, 202, 225);"/><text style="fill: black;" font-size="5pt" transform="translate(3, 2)" dx="0" dy="0"><tspan x="0" dy="0" y="15.91304347826087">Timestomp</tspan></text></g><g transform="translate(0,585.695652173913)"><rect width="95.0909090909091" height="30.82608695652174" style="stroke: rgb(0, 0, 0); fill: rgb(158, 202, 225);"/><text style="fill: black;" font-size="5pt" transform="translate(3, 2)" dx="0" dy="0"><tspan x="0" dy="0" y="15.91304347826087">Valid Accounts</tspan></text></g><g transform="translate(0,616.5217391304348)"><rect width="95.0909090909091" height="30.82608695652174" style="stroke: rgb(0, 0, 0); fill: white;"/><text style="fill: black;" font-size="5pt" transform="translate(3, 2)" dx="0" dy="0"><tspan x="0" dy="0" y="15.91304347826087">Web Service</tspan></text></g></g></g><g transform="translate(475.4545454545455, 0)"><g transform="translate(0,0)"><rect width="95.0909090909091" height="61.65217391304348" style="stroke: rgb(0, 0, 0); fill: white;"/><text font-size="6pt" transform="translate(3, 18.663043478260867)" style="fill: black; font-weight: bold;" dx="0" dy="0"><tspan x="0" dy="0em">Credential Access</tspan></text><text font-size="6pt" transform="translate(3, 48.98913043478261)" style="fill: black;" dx="0" dy="0"><tspan x="0" dy="0em">8 items</tspan></text></g><g transform="translate(0,61.65217391304348)"><g transform="translate(0,0)"><rect width="95.0909090909091" height="30.82608695652174" style="stroke: rgb(0, 0, 0); fill: white;"/><text style="fill: black;" font-size="5pt" transform="translate(3, 2)" dx="0" dy="0"><tspan x="0" dy="0" y="15.91304347826087">Bash History</tspan></text></g><g transform="translate(0,30.82608695652174)"><rect width="95.0909090909091" height="30.82608695652174" style="stroke: rgb(0, 0, 0); fill: white;"/><text style="fill: black;" font-size="5pt" transform="translate(3, 2)" dx="0" dy="0"><tspan x="0" dy="0" y="15.91304347826087">Brute Force</tspan></text></g><g transform="translate(0,61.65217391304348)"><rect width="95.0909090909091" height="30.82608695652174" style="stroke: rgb(0, 0, 0); fill: white;"/><text style="fill: black;" font-size="5pt" transform="translate(3, 2)" dx="0" dy="0"><tspan x="0" dy="0" y="15.91304347826087">Credentials in Files</tspan></text></g><g transform="translate(0,92.47826086956522)"><rect width="95.0909090909091" height="30.82608695652174" style="stroke: rgb(0, 0, 0); fill: white;"/><text style="fill: black;" font-size="5pt" transform="translate(3, 2)" dx="0" dy="0"><tspan x="0" dy="0" y="8.456521739130434">Exploitation for Credential</tspan><tspan x="0" dy="0" y="23.369565217391305">Access</tspan></text></g><g transform="translate(0,123.30434782608695)"><rect width="95.0909090909091" height="30.82608695652174" style="stroke: rgb(0, 0, 0); fill: white;"/><text style="fill: black;" font-size="5pt" transform="translate(3, 2)" dx="0" dy="0"><tspan x="0" dy="0" y="15.91304347826087">Input Capture</tspan></text></g><g transform="translate(0,154.1304347826087)"><rect width="95.0909090909091" height="30.82608695652174" style="stroke: rgb(0, 0, 0); fill: white;"/><text style="fill: black;" font-size="5pt" transform="translate(3, 2)" dx="0" dy="0"><tspan x="0" dy="0" y="15.91304347826087">Network Sniffing</tspan></text></g><g transform="translate(0,184.95652173913044)"><rect width="95.0909090909091" height="30.82608695652174" style="stroke: rgb(0, 0, 0); fill: white;"/><text style="fill: black;" font-size="5pt" transform="translate(3, 2)" dx="0" dy="0"><tspan x="0" dy="0" y="15.91304347826087">Private Keys</tspan></text></g><g transform="translate(0,215.78260869565216)"><rect width="95.0909090909091" height="30.82608695652174" style="stroke: rgb(0, 0, 0); fill: white;"/><text style="fill: black;" font-size="5pt" transform="translate(3, 2)" dx="0" dy="0"><tspan x="0" dy="0" y="8.456521739130434">Two-Factor Authentication</tspan><tspan x="0" dy="0" y="23.369565217391305">Interception</tspan></text></g></g></g><g transform="translate(570.5454545454545, 0)"><g transform="translate(0,0)"><rect width="95.0909090909091" height="61.65217391304348" style="stroke: rgb(0, 0, 0); fill: white;"/><text font-size="6pt" transform="translate(3, 18.663043478260867)" style="fill: black; font-weight: bold;" dx="0" dy="0"><tspan x="0" dy="0em">Discovery</tspan></text><text font-size="6pt" transform="translate(3, 48.98913043478261)" style="fill: black;" dx="0" dy="0"><tspan x="0" dy="0em">12 items</tspan></text></g><g transform="translate(0,61.65217391304348)"><g transform="translate(0,0)"><rect width="95.0909090909091" height="30.82608695652174" style="stroke: rgb(0, 0, 0); fill: rgb(158, 202, 225);"/><text style="fill: black;" font-size="5pt" transform="translate(3, 2)" dx="0" dy="0"><tspan x="0" dy="0" y="15.91304347826087">Account Discovery</tspan></text></g><g transform="translate(0,30.82608695652174)"><rect width="95.0909090909091" height="30.82608695652174" style="stroke: rgb(0, 0, 0); fill: white;"/><text style="fill: black;" font-size="5pt" transform="translate(3, 2)" dx="0" dy="0"><tspan x="0" dy="0" y="15.91304347826087">Browser Bookmark Discovery</tspan></text></g><g transform="translate(0,61.65217391304348)"><rect width="95.0909090909091" height="30.82608695652174" style="stroke: rgb(0, 0, 0); fill: white;"/><text style="fill: black;" font-size="5pt" transform="translate(3, 2)" dx="0" dy="0"><tspan x="0" dy="0" y="15.91304347826087">File and Directory Discovery</tspan></text></g><g transform="translate(0,92.47826086956522)"><rect width="95.0909090909091" height="30.82608695652174" style="stroke: rgb(0, 0, 0); fill: white;"/><text style="fill: black;" font-size="5pt" transform="translate(3, 2)" dx="0" dy="0"><tspan x="0" dy="0" y="15.91304347826087">Network Service Scanning</tspan></text></g><g transform="translate(0,123.30434782608695)"><rect width="95.0909090909091" height="30.82608695652174" style="stroke: rgb(0, 0, 0); fill: rgb(158, 202, 225);"/><text style="fill: black;" font-size="5pt" transform="translate(3, 2)" dx="0" dy="0"><tspan x="0" dy="0" y="15.91304347826087">Password Policy Discovery</tspan></text></g><g transform="translate(0,154.1304347826087)"><rect width="95.0909090909091" height="30.82608695652174" style="stroke: rgb(0, 0, 0); fill: white;"/><text style="fill: black;" font-size="5pt" transform="translate(3, 2)" dx="0" dy="0"><tspan x="0" dy="0" y="15.91304347826087">Permission Groups Discovery</tspan></text></g><g transform="translate(0,184.95652173913044)"><rect width="95.0909090909091" height="30.82608695652174" style="stroke: rgb(0, 0, 0); fill: white;"/><text style="fill: black;" font-size="5pt" transform="translate(3, 2)" dx="0" dy="0"><tspan x="0" dy="0" y="15.91304347826087">Process Discovery</tspan></text></g><g transform="translate(0,215.78260869565216)"><rect width="95.0909090909091" height="30.82608695652174" style="stroke: rgb(0, 0, 0); fill: rgb(158, 202, 225);"/><text style="fill: black;" font-size="5pt" transform="translate(3, 2)" dx="0" dy="0"><tspan x="0" dy="0" y="15.91304347826087">Remote System Discovery</tspan></text></g><g transform="translate(0,246.6086956521739)"><rect width="95.0909090909091" height="30.82608695652174" style="stroke: rgb(0, 0, 0); fill: rgb(158, 202, 225);"/><text style="fill: black;" font-size="5pt" transform="translate(3, 2)" dx="0" dy="0"><tspan x="0" dy="0" y="15.91304347826087">System Information Discovery</tspan></text></g><g transform="translate(0,277.4347826086956)"><rect width="95.0909090909091" height="30.82608695652174" style="stroke: rgb(0, 0, 0); fill: rgb(158, 202, 225);"/><text style="fill: black;" font-size="5pt" transform="translate(3, 2)" dx="0" dy="0"><tspan x="0" dy="0" y="8.456521739130434">System Network</tspan><tspan x="0" dy="0" y="23.369565217391305">Configuration Discovery</tspan></text></g><g transform="translate(0,308.2608695652174)"><rect width="95.0909090909091" height="30.82608695652174" style="stroke: rgb(0, 0, 0); fill: rgb(158, 202, 225);"/><text style="fill: black;" font-size="5pt" transform="translate(3, 2)" dx="0" dy="0"><tspan x="0" dy="0" y="8.456521739130434">System Network Connections</tspan><tspan x="0" dy="0" y="23.369565217391305">Discovery</tspan></text></g><g transform="translate(0,339.0869565217391)"><rect width="95.0909090909091" height="30.82608695652174" style="stroke: rgb(0, 0, 0); fill: rgb(158, 202, 225);"/><text style="fill: black;" font-size="5pt" transform="translate(3, 2)" dx="0" dy="0"><tspan x="0" dy="0" y="8.456521739130434">System Owner/User</tspan><tspan x="0" dy="0" y="23.369565217391305">Discovery</tspan></text></g></g></g><g transform="translate(665.6363636363636, 0)"><g transform="translate(0,0)"><rect width="95.0909090909091" height="61.65217391304348" style="stroke: rgb(0, 0, 0); fill: white;"/><text font-size="6pt" transform="translate(3, 18.663043478260867)" style="fill: black; font-weight: bold;" dx="0" dy="0"><tspan x="0" dy="0em">Lateral Movement</tspan></text><text font-size="6pt" transform="translate(3, 48.98913043478261)" style="fill: black;" dx="0" dy="0"><tspan x="0" dy="0em">6 items</tspan></text></g><g transform="translate(0,61.65217391304348)"><g transform="translate(0,0)"><rect width="95.0909090909091" height="30.82608695652174" style="stroke: rgb(0, 0, 0); fill: white;"/><text style="fill: black;" font-size="5pt" transform="translate(3, 2)" dx="0" dy="0"><tspan x="0" dy="0" y="8.456521739130434">Application Deployment</tspan><tspan x="0" dy="0" y="23.369565217391305">Software</tspan></text></g><g transform="translate(0,30.82608695652174)"><rect width="95.0909090909091" height="30.82608695652174" style="stroke: rgb(0, 0, 0); fill: white;"/><text style="fill: black;" font-size="5pt" transform="translate(3, 2)" dx="0" dy="0"><tspan x="0" dy="0" y="8.456521739130434">Exploitation of Remote</tspan><tspan x="0" dy="0" y="23.369565217391305">Services</tspan></text></g><g transform="translate(0,61.65217391304348)"><rect width="95.0909090909091" height="30.82608695652174" style="stroke: rgb(0, 0, 0); fill: white;"/><text style="fill: black;" font-size="5pt" transform="translate(3, 2)" dx="0" dy="0"><tspan x="0" dy="0" y="15.91304347826087">Remote File Copy</tspan></text></g><g transform="translate(0,92.47826086956522)"><rect width="95.0909090909091" height="30.82608695652174" style="stroke: rgb(0, 0, 0); fill: rgb(158, 202, 225);"/><text style="fill: black;" font-size="5pt" transform="translate(3, 2)" dx="0" dy="0"><tspan x="0" dy="0" y="15.91304347826087">Remote Services</tspan></text></g><g transform="translate(0,123.30434782608695)"><rect width="95.0909090909091" height="30.82608695652174" style="stroke: rgb(0, 0, 0); fill: white;"/><text style="fill: black;" font-size="5pt" transform="translate(3, 2)" dx="0" dy="0"><tspan x="0" dy="0" y="15.91304347826087">SSH Hijacking</tspan></text></g><g transform="translate(0,154.1304347826087)"><rect width="95.0909090909091" height="30.82608695652174" style="stroke: rgb(0, 0, 0); fill: white;"/><text style="fill: black;" font-size="5pt" transform="translate(3, 2)" dx="0" dy="0"><tspan x="0" dy="0" y="15.91304347826087">Third-party Software</tspan></text></g></g></g><g transform="translate(760.7272727272727, 0)"><g transform="translate(0,0)"><rect width="95.0909090909091" height="61.65217391304348" style="stroke: rgb(0, 0, 0); fill: white;"/><text font-size="6pt" transform="translate(3, 18.663043478260867)" style="fill: black; font-weight: bold;" dx="0" dy="0"><tspan x="0" dy="0em">Collection</tspan></text><text font-size="6pt" transform="translate(3, 48.98913043478261)" style="fill: black;" dx="0" dy="0"><tspan x="0" dy="0em">10 items</tspan></text></g><g transform="translate(0,61.65217391304348)"><g transform="translate(0,0)"><rect width="95.0909090909091" height="30.82608695652174" style="stroke: rgb(0, 0, 0); fill: white;"/><text style="fill: black;" font-size="5pt" transform="translate(3, 2)" dx="0" dy="0"><tspan x="0" dy="0" y="15.91304347826087">Audio Capture</tspan></text></g><g transform="translate(0,30.82608695652174)"><rect width="95.0909090909091" height="30.82608695652174" style="stroke: rgb(0, 0, 0); fill: white;"/><text style="fill: black;" font-size="5pt" transform="translate(3, 2)" dx="0" dy="0"><tspan x="0" dy="0" y="15.91304347826087">Automated Collection</tspan></text></g><g transform="translate(0,61.65217391304348)"><rect width="95.0909090909091" height="30.82608695652174" style="stroke: rgb(0, 0, 0); fill: white;"/><text style="fill: black;" font-size="5pt" transform="translate(3, 2)" dx="0" dy="0"><tspan x="0" dy="0" y="15.91304347826087">Clipboard Data</tspan></text></g><g transform="translate(0,92.47826086956522)"><rect width="95.0909090909091" height="30.82608695652174" style="stroke: rgb(0, 0, 0); fill: white;"/><text style="fill: black;" font-size="5pt" transform="translate(3, 2)" dx="0" dy="0"><tspan x="0" dy="0" y="8.456521739130434">Data from Information</tspan><tspan x="0" dy="0" y="23.369565217391305">Repositories</tspan></text></g><g transform="translate(0,123.30434782608695)"><rect width="95.0909090909091" height="30.82608695652174" style="stroke: rgb(0, 0, 0); fill: white;"/><text style="fill: black;" font-size="5pt" transform="translate(3, 2)" dx="0" dy="0"><tspan x="0" dy="0" y="15.91304347826087">Data from Local System</tspan></text></g><g transform="translate(0,154.1304347826087)"><rect width="95.0909090909091" height="30.82608695652174" style="stroke: rgb(0, 0, 0); fill: white;"/><text style="fill: black;" font-size="5pt" transform="translate(3, 2)" dx="0" dy="0"><tspan x="0" dy="0" y="8.456521739130434">Data from Network Shared</tspan><tspan x="0" dy="0" y="23.369565217391305">Drive</tspan></text></g><g transform="translate(0,184.95652173913044)"><rect width="95.0909090909091" height="30.82608695652174" style="stroke: rgb(0, 0, 0); fill: rgb(158, 202, 225);"/><text style="fill: black;" font-size="5pt" transform="translate(3, 2)" dx="0" dy="0"><tspan x="0" dy="0" y="15.91304347826087">Data from Removable Media</tspan></text></g><g transform="translate(0,215.78260869565216)"><rect width="95.0909090909091" height="30.82608695652174" style="stroke: rgb(0, 0, 0); fill: white;"/><text style="fill: black;" font-size="5pt" transform="translate(3, 2)" dx="0" dy="0"><tspan x="0" dy="0" y="15.91304347826087">Data Staged</tspan></text></g><g transform="translate(0,246.6086956521739)"><rect width="95.0909090909091" height="30.82608695652174" style="stroke: rgb(0, 0, 0); fill: white;"/><text style="fill: black;" font-size="5pt" transform="translate(3, 2)" dx="0" dy="0"><tspan x="0" dy="0" y="15.91304347826087">Input Capture</tspan></text></g><g transform="translate(0,277.4347826086956)"><rect width="95.0909090909091" height="30.82608695652174" style="stroke: rgb(0, 0, 0); fill: white;"/><text style="fill: black;" font-size="5pt" transform="translate(3, 2)" dx="0" dy="0"><tspan x="0" dy="0" y="15.91304347826087">Screen Capture</tspan></text></g></g></g><g transform="translate(855.8181818181819, 0)"><g transform="translate(0,0)"><rect width="95.0909090909091" height="61.65217391304348" style="stroke: rgb(0, 0, 0); fill: white;"/><text font-size="6pt" transform="translate(3, 18.663043478260867)" style="fill: black; font-weight: bold;" dx="0" dy="0"><tspan x="0" dy="0em">Exfiltration</tspan></text><text font-size="6pt" transform="translate(3, 48.98913043478261)" style="fill: black;" dx="0" dy="0"><tspan x="0" dy="0em">9 items</tspan></text></g><g transform="translate(0,61.65217391304348)"><g transform="translate(0,0)"><rect width="95.0909090909091" height="30.82608695652174" style="stroke: rgb(0, 0, 0); fill: white;"/><text style="fill: black;" font-size="5pt" transform="translate(3, 2)" dx="0" dy="0"><tspan x="0" dy="0" y="15.91304347826087">Automated Exfiltration</tspan></text></g><g transform="translate(0,30.82608695652174)"><rect width="95.0909090909091" height="30.82608695652174" style="stroke: rgb(0, 0, 0); fill: white;"/><text style="fill: black;" font-size="5pt" transform="translate(3, 2)" dx="0" dy="0"><tspan x="0" dy="0" y="15.91304347826087">Data Compressed</tspan></text></g><g transform="translate(0,61.65217391304348)"><rect width="95.0909090909091" height="30.82608695652174" style="stroke: rgb(0, 0, 0); fill: white;"/><text style="fill: black;" font-size="5pt" transform="translate(3, 2)" dx="0" dy="0"><tspan x="0" dy="0" y="15.91304347826087">Data Encrypted</tspan></text></g><g transform="translate(0,92.47826086956522)"><rect width="95.0909090909091" height="30.82608695652174" style="stroke: rgb(0, 0, 0); fill: white;"/><text style="fill: black;" font-size="5pt" transform="translate(3, 2)" dx="0" dy="0"><tspan x="0" dy="0" y="15.91304347826087">Data Transfer Size Limits</tspan></text></g><g transform="translate(0,123.30434782608695)"><rect width="95.0909090909091" height="30.82608695652174" style="stroke: rgb(0, 0, 0); fill: white;"/><text style="fill: black;" font-size="5pt" transform="translate(3, 2)" dx="0" dy="0"><tspan x="0" dy="0" y="8.456521739130434">Exfiltration Over Alternative</tspan><tspan x="0" dy="0" y="23.369565217391305">Protocol</tspan></text></g><g transform="translate(0,154.1304347826087)"><rect width="95.0909090909091" height="30.82608695652174" style="stroke: rgb(0, 0, 0); fill: white;"/><text style="fill: black;" font-size="5pt" transform="translate(3, 2)" dx="0" dy="0"><tspan x="0" dy="0" y="8.456521739130434">Exfiltration Over Command</tspan><tspan x="0" dy="0" y="23.369565217391305">and Control Channel</tspan></text></g><g transform="translate(0,184.95652173913044)"><rect width="95.0909090909091" height="30.82608695652174" style="stroke: rgb(0, 0, 0); fill: white;"/><text style="fill: black;" font-size="5pt" transform="translate(3, 2)" dx="0" dy="0"><tspan x="0" dy="0" y="8.456521739130434">Exfiltration Over Other</tspan><tspan x="0" dy="0" y="23.369565217391305">Network Medium</tspan></text></g><g transform="translate(0,215.78260869565216)"><rect width="95.0909090909091" height="30.82608695652174" style="stroke: rgb(0, 0, 0); fill: rgb(158, 202, 225);"/><text style="fill: black;" font-size="5pt" transform="translate(3, 2)" dx="0" dy="0"><tspan x="0" dy="0" y="8.456521739130434">Exfiltration Over Physical</tspan><tspan x="0" dy="0" y="23.369565217391305">Medium</tspan></text></g><g transform="translate(0,246.6086956521739)"><rect width="95.0909090909091" height="30.82608695652174" style="stroke: rgb(0, 0, 0); fill: white;"/><text style="fill: black;" font-size="5pt" transform="translate(3, 2)" dx="0" dy="0"><tspan x="0" dy="0" y="15.91304347826087">Scheduled Transfer</tspan></text></g></g></g><g transform="translate(950.909090909091, 0)"><g transform="translate(0,0)"><rect width="95.0909090909091" height="61.65217391304348" style="stroke: rgb(0, 0, 0); fill: white;"/><text font-size="6pt" transform="translate(3, 18.663043478260867)" style="fill: black; font-weight: bold;" dx="0" dy="0"><tspan x="0" dy="0em">Command And Control</tspan></text><text font-size="6pt" transform="translate(3, 48.98913043478261)" style="fill: black;" dx="0" dy="0"><tspan x="0" dy="0em">21 items</tspan></text></g><g transform="translate(0,61.65217391304348)"><g transform="translate(0,0)"><rect width="95.0909090909091" height="30.82608695652174" style="stroke: rgb(0, 0, 0); fill: white;"/><text style="fill: black;" font-size="5pt" transform="translate(3, 2)" dx="0" dy="0"><tspan x="0" dy="0" y="15.91304347826087">Commonly Used Port</tspan></text></g><g transform="translate(0,30.82608695652174)"><rect width="95.0909090909091" height="30.82608695652174" style="stroke: rgb(0, 0, 0); fill: white;"/><text style="fill: black;" font-size="5pt" transform="translate(3, 2)" dx="0" dy="0"><tspan x="0" dy="0" y="8.456521739130434">Communication Through</tspan><tspan x="0" dy="0" y="23.369565217391305">Removable Media</tspan></text></g><g transform="translate(0,61.65217391304348)"><rect width="95.0909090909091" height="30.82608695652174" style="stroke: rgb(0, 0, 0); fill: white;"/><text style="fill: black;" font-size="5pt" transform="translate(3, 2)" dx="0" dy="0"><tspan x="0" dy="0" y="15.91304347826087">Connection Proxy</tspan></text></g><g transform="translate(0,92.47826086956522)"><rect width="95.0909090909091" height="30.82608695652174" style="stroke: rgb(0, 0, 0); fill: white;"/><text style="fill: black;" font-size="5pt" transform="translate(3, 2)" dx="0" dy="0"><tspan x="0" dy="0" y="8.456521739130434">Custom Command and</tspan><tspan x="0" dy="0" y="23.369565217391305">Control Protocol</tspan></text></g><g transform="translate(0,123.30434782608695)"><rect width="95.0909090909091" height="30.82608695652174" style="stroke: rgb(0, 0, 0); fill: white;"/><text style="fill: black;" font-size="5pt" transform="translate(3, 2)" dx="0" dy="0"><tspan x="0" dy="0" y="8.456521739130434">Custom Cryptographic</tspan><tspan x="0" dy="0" y="23.369565217391305">Protocol</tspan></text></g><g transform="translate(0,154.1304347826087)"><rect width="95.0909090909091" height="30.82608695652174" style="stroke: rgb(0, 0, 0); fill: white;"/><text style="fill: black;" font-size="5pt" transform="translate(3, 2)" dx="0" dy="0"><tspan x="0" dy="0" y="15.91304347826087">Data Encoding</tspan></text></g><g transform="translate(0,184.95652173913044)"><rect width="95.0909090909091" height="30.82608695652174" style="stroke: rgb(0, 0, 0); fill: white;"/><text style="fill: black;" font-size="5pt" transform="translate(3, 2)" dx="0" dy="0"><tspan x="0" dy="0" y="15.91304347826087">Data Obfuscation</tspan></text></g><g transform="translate(0,215.78260869565216)"><rect width="95.0909090909091" height="30.82608695652174" style="stroke: rgb(0, 0, 0); fill: white;"/><text style="fill: black;" font-size="5pt" transform="translate(3, 2)" dx="0" dy="0"><tspan x="0" dy="0" y="15.91304347826087">Domain Fronting</tspan></text></g><g transform="translate(0,246.6086956521739)"><rect width="95.0909090909091" height="30.82608695652174" style="stroke: rgb(0, 0, 0); fill: white;"/><text style="fill: black;" font-size="5pt" transform="translate(3, 2)" dx="0" dy="0"><tspan x="0" dy="0" y="15.91304347826087">Fallback Channels</tspan></text></g><g transform="translate(0,277.4347826086956)"><rect width="95.0909090909091" height="30.82608695652174" style="stroke: rgb(0, 0, 0); fill: white;"/><text style="fill: black;" font-size="5pt" transform="translate(3, 2)" dx="0" dy="0"><tspan x="0" dy="0" y="15.91304347826087">Multi-hop Proxy</tspan></text></g><g transform="translate(0,308.2608695652174)"><rect width="95.0909090909091" height="30.82608695652174" style="stroke: rgb(0, 0, 0); fill: white;"/><text style="fill: black;" font-size="5pt" transform="translate(3, 2)" dx="0" dy="0"><tspan x="0" dy="0" y="15.91304347826087">Multi-Stage Channels</tspan></text></g><g transform="translate(0,339.0869565217391)"><rect width="95.0909090909091" height="30.82608695652174" style="stroke: rgb(0, 0, 0); fill: white;"/><text style="fill: black;" font-size="5pt" transform="translate(3, 2)" dx="0" dy="0"><tspan x="0" dy="0" y="15.91304347826087">Multiband Communication</tspan></text></g><g transform="translate(0,369.9130434782609)"><rect width="95.0909090909091" height="30.82608695652174" style="stroke: rgb(0, 0, 0); fill: rgb(158, 202, 225);"/><text style="fill: black;" font-size="5pt" transform="translate(3, 2)" dx="0" dy="0"><tspan x="0" dy="0" y="15.91304347826087">Multilayer Encryption</tspan></text></g><g transform="translate(0,400.7391304347826)"><rect width="95.0909090909091" height="30.82608695652174" style="stroke: rgb(0, 0, 0); fill: white;"/><text style="fill: black;" font-size="5pt" transform="translate(3, 2)" dx="0" dy="0"><tspan x="0" dy="0" y="15.91304347826087">Port Knocking</tspan></text></g><g transform="translate(0,431.5652173913043)"><rect width="95.0909090909091" height="30.82608695652174" style="stroke: rgb(0, 0, 0); fill: rgb(158, 202, 225);"/><text style="fill: black;" font-size="5pt" transform="translate(3, 2)" dx="0" dy="0"><tspan x="0" dy="0" y="15.91304347826087">Remote Access Tools</tspan></text></g><g transform="translate(0,462.39130434782606)"><rect width="95.0909090909091" height="30.82608695652174" style="stroke: rgb(0, 0, 0); fill: white;"/><text style="fill: black;" font-size="5pt" transform="translate(3, 2)" dx="0" dy="0"><tspan x="0" dy="0" y="15.91304347826087">Remote File Copy</tspan></text></g><g transform="translate(0,493.2173913043478)"><rect width="95.0909090909091" height="30.82608695652174" style="stroke: rgb(0, 0, 0); fill: rgb(158, 202, 225);"/><text style="fill: black;" font-size="5pt" transform="translate(3, 2)" dx="0" dy="0"><tspan x="0" dy="0" y="8.456521739130434">Standard Application Layer</tspan><tspan x="0" dy="0" y="23.369565217391305">Protocol</tspan></text></g><g transform="translate(0,524.0434782608695)"><rect width="95.0909090909091" height="30.82608695652174" style="stroke: rgb(0, 0, 0); fill: white;"/><text style="fill: black;" font-size="5pt" transform="translate(3, 2)" dx="0" dy="0"><tspan x="0" dy="0" y="8.456521739130434">Standard Cryptographic</tspan><tspan x="0" dy="0" y="23.369565217391305">Protocol</tspan></text></g><g transform="translate(0,554.8695652173913)"><rect width="95.0909090909091" height="30.82608695652174" style="stroke: rgb(0, 0, 0); fill: white;"/><text style="fill: black;" font-size="5pt" transform="translate(3, 2)" dx="0" dy="0"><tspan x="0" dy="0" y="8.456521739130434">Standard Non-Application</tspan><tspan x="0" dy="0" y="23.369565217391305">Layer Protocol</tspan></text></g><g transform="translate(0,585.695652173913)"><rect width="95.0909090909091" height="30.82608695652174" style="stroke: rgb(0, 0, 0); fill: white;"/><text style="fill: black;" font-size="5pt" transform="translate(3, 2)" dx="0" dy="0"><tspan x="0" dy="0" y="15.91304347826087">Uncommonly Used Port</tspan></text></g><g transform="translate(0,616.5217391304348)"><rect width="95.0909090909091" height="30.82608695652174" style="stroke: rgb(0, 0, 0); fill: white;"/><text style="fill: black;" font-size="5pt" transform="translate(3, 2)" dx="0" dy="0"><tspan x="0" dy="0" y="15.91304347826087">Web Service</tspan></text></g></g></g></g></g></svg>